<svg width="40" height="40" viewBox="0 0 40 40" fill="none" xmlns="http://www.w3.org/2000/svg">
<path d="M25.5818 9.96224C25.8777 10.2583 26.044 10.6598 26.044 11.0784C26.044 11.4971 25.8777 11.8986 25.5818 12.1946L17.7669 20.0095L25.5818 27.8244C25.8694 28.1222 26.0285 28.521 26.0249 28.9349C26.0213 29.3489 25.8553 29.7449 25.5625 30.0376C25.2698 30.3303 24.8739 30.4963 24.4599 30.4999C24.046 30.5035 23.6472 30.3444 23.3494 30.0568L14.4183 21.1257C14.1223 20.8297 13.9561 20.4282 13.9561 20.0095C13.9561 19.5909 14.1223 19.1894 14.4183 18.8933L23.3494 9.96224C23.6455 9.66627 24.047 9.5 24.4656 9.5C24.8842 9.5 25.2857 9.66627 25.5818 9.96224Z" fill="#DDDDDD"/>
</svg>
