<svg width="40" height="40" viewBox="0 0 40 40" fill="none" xmlns="http://www.w3.org/2000/svg">
<path d="M14.4183 9.96224C14.1223 10.2583 13.9561 10.6598 13.9561 11.0784C13.9561 11.4971 14.1223 11.8986 14.4183 12.1946L22.2332 20.0095L14.4183 27.8244C14.1307 28.1222 13.9716 28.521 13.9752 28.9349C13.9788 29.3489 14.1448 29.7449 14.4375 30.0376C14.7302 30.3303 15.1262 30.4963 15.5402 30.4999C15.9541 30.5035 16.3529 30.3444 16.6507 30.0568L25.5818 21.1257C25.8777 20.8297 26.044 20.4282 26.044 20.0095C26.044 19.5909 25.8777 19.1894 25.5818 18.8933L16.6507 9.96224C16.3546 9.66627 15.9531 9.5 15.5345 9.5C15.1159 9.5 14.7144 9.66627 14.4183 9.96224Z" fill="#DDDDDD"/>
</svg>
