<svg width="40" height="40" viewBox="0 0 40 40" fill="none" xmlns="http://www.w3.org/2000/svg">
<path fill-rule="evenodd" clip-rule="evenodd" d="M25.4111 23.841C26.7963 22.0545 27.4492 19.8071 27.2368 17.5561C27.0245 15.3051 25.9629 13.2195 24.268 11.7237C22.5731 10.228 20.3723 9.43433 18.1133 9.50426C15.8542 9.57419 13.7067 10.5025 12.1075 12.1002C10.507 13.699 9.57603 15.8483 9.50445 18.1099C9.43288 20.3716 10.226 22.5754 11.7223 24.2724C13.2186 25.9693 15.3053 27.0316 17.5573 27.2428C19.8094 27.454 22.0571 26.7982 23.8426 25.4091L23.8904 25.4591L28.6026 30.1743C28.7058 30.2776 28.8283 30.3595 28.9632 30.4154C29.098 30.4712 29.2426 30.5 29.3885 30.5C29.5345 30.5 29.679 30.4712 29.8139 30.4154C29.9487 30.3595 30.0712 30.2776 30.1745 30.1743C30.2777 30.0711 30.3595 29.9485 30.4154 29.8136C30.4712 29.6787 30.5 29.5341 30.5 29.3881C30.5 29.2421 30.4712 29.0975 30.4154 28.9626C30.3595 28.8277 30.2777 28.7051 30.1745 28.6018L25.4611 23.8877C25.4449 23.8717 25.4282 23.8561 25.4111 23.841ZM23.105 13.6727C23.7322 14.29 24.231 15.0254 24.5726 15.8365C24.9143 16.6476 25.092 17.5184 25.0956 18.3986C25.0992 19.2788 24.9286 20.151 24.5935 20.9649C24.2585 21.7787 23.7657 22.5182 23.1435 23.1406C22.5214 23.763 21.7822 24.256 20.9687 24.5912C20.1551 24.9263 19.2833 25.0971 18.4034 25.0935C17.5236 25.0899 16.6532 24.9121 15.8424 24.5703C15.0316 24.2285 14.2964 23.7295 13.6794 23.102C12.4462 21.8481 11.7583 20.1576 11.7655 18.3986C11.7727 16.6396 12.4743 14.9547 13.7176 13.7109C14.9609 12.4671 16.6451 11.7652 18.4034 11.758C20.1617 11.7509 21.8516 12.439 23.105 13.6727Z" fill="#DDDDDD"/>
</svg>
