<svg width="40" height="40" viewBox="0 0 40 40" fill="none" xmlns="http://www.w3.org/2000/svg">
<path fill-rule="evenodd" clip-rule="evenodd" d="M20 9.5C14.2009 9.5 9.5 14.2009 9.5 20C9.5 25.7991 14.2009 30.5 20 30.5C25.7991 30.5 30.5 25.7991 30.5 20C30.5 14.2009 25.7991 9.5 20 9.5ZM16.325 17.375C16.325 16.8924 16.4201 16.4145 16.6047 15.9686C16.7894 15.5228 17.0601 15.1176 17.4014 14.7764C17.7426 14.4351 18.1478 14.1644 18.5936 13.9797C19.0395 13.7951 19.5174 13.7 20 13.7C20.4826 13.7 20.9605 13.7951 21.4064 13.9797C21.8522 14.1644 22.2574 14.4351 22.5986 14.7764C22.9399 15.1176 23.2106 15.5228 23.3953 15.9686C23.5799 16.4145 23.675 16.8924 23.675 17.375C23.675 18.3497 23.2878 19.2844 22.5986 19.9736C21.9094 20.6628 20.9747 21.05 20 21.05C19.0253 21.05 18.0906 20.6628 17.4014 19.9736C16.7122 19.2844 16.325 18.3497 16.325 17.375ZM26.5709 25.2332C25.7846 26.2216 24.7854 27.0198 23.6476 27.5681C22.5099 28.1164 21.263 28.4008 20 28.4C18.737 28.4008 17.4901 28.1164 16.3524 27.5681C15.2146 27.0198 14.2153 26.2216 13.4291 25.2332C15.1311 24.012 17.4537 23.15 20 23.15C22.5462 23.15 24.8688 24.012 26.5709 25.2332Z" fill="#DDDDDD"/>
</svg>
