<svg width="40" height="40" viewBox="0 0 40 40" fill="none" xmlns="http://www.w3.org/2000/svg">
<path d="M28.4 23.6746H22.5074L23.6865 27.21C23.8986 27.8484 23.7915 28.5561 23.3978 29.1021C23.004 29.6481 22.3656 29.9746 21.6926 29.9746H20C19.6881 29.9746 19.3931 29.836 19.1925 29.5966L14.2575 23.6746H11.6C10.4418 23.6746 9.5 22.7328 9.5 21.5746V12.1246C9.5 10.9665 10.4418 10.0246 11.6 10.0246H25.5723C25.9996 10.026 26.4163 10.1571 26.7675 10.4004C27.1186 10.6438 27.3877 10.988 27.539 11.3875L30.4338 19.1061C30.4778 19.224 30.5002 19.3488 30.5 19.4746V21.5746C30.5 22.7328 29.5581 23.6746 28.4 23.6746ZM11.6 21.5746H13.7V12.1246H11.6V21.5746ZM28.4 19.6647L25.5723 12.1246H15.8V22.2445L20.4914 27.8746H21.6947L20.0546 22.9575C20.0014 22.7996 19.9865 22.6314 20.0113 22.4667C20.0361 22.3019 20.0997 22.1455 20.197 22.0103C20.2944 21.8751 20.4225 21.7651 20.5708 21.6893C20.7192 21.6135 20.8834 21.5742 21.05 21.5746H28.4V19.6647Z" fill="#DDDDDD"/>
</svg>
