<svg width="40" height="40" viewBox="0 0 40 40" fill="none" xmlns="http://www.w3.org/2000/svg">
<path d="M28.4 16.3254H22.5074L23.6865 12.79C23.8986 12.1516 23.7915 11.4439 23.3978 10.8979C23.004 10.3519 22.3656 10.0254 21.6926 10.0254H20C19.6881 10.0254 19.3931 10.164 19.1925 10.4034L14.2575 16.3254H11.6C10.4418 16.3254 9.5 17.2672 9.5 18.4254V27.8754C9.5 29.0335 10.4418 29.9754 11.6 29.9754H25.5723C25.9996 29.974 26.4163 29.8429 26.7675 29.5996C27.1186 29.3562 27.3877 29.012 27.539 28.6125L30.4338 20.8939C30.4778 20.776 30.5002 20.6512 30.5 20.5254V18.4254C30.5 17.2672 29.5581 16.3254 28.4 16.3254ZM11.6 18.4254H13.7V27.8754H11.6V18.4254ZM28.4 20.3353L25.5723 27.8754H15.8V17.7555L20.4914 12.1254H21.6947L20.0546 17.0425C20.0014 17.2004 19.9865 17.3686 20.0113 17.5333C20.0361 17.6981 20.0997 17.8545 20.197 17.9897C20.2944 18.1249 20.4225 18.2349 20.5708 18.3107C20.7192 18.3865 20.8834 18.4258 21.05 18.4254H28.4V20.3353Z" fill="#DDDDDD"/>
</svg>
