<svg width="40" height="40" viewBox="0 0 40 40" fill="none" xmlns="http://www.w3.org/2000/svg">
<path d="M19.0224 25.4964C19.1236 25.5973 19.2039 25.7172 19.2588 25.8492C19.3136 25.9812 19.3418 26.1227 19.3418 26.2657C19.3418 26.4086 19.3136 26.5501 19.2588 26.6821C19.2039 26.8141 19.1236 26.934 19.0224 27.0349L18.559 27.4983C18.0671 27.992 17.4823 28.3833 16.8382 28.6495C16.1942 28.9158 15.5038 29.0517 14.8068 29.0495C13.7573 29.0498 12.7313 28.7388 11.8586 28.1559C10.9858 27.573 10.3056 26.7443 9.90393 25.7747C9.50225 24.8051 9.39719 23.7382 9.60203 22.7089C9.80687 21.6795 10.3124 20.7341 11.0547 19.9922L14.1996 16.8473C14.8685 16.1784 15.704 15.7006 16.6197 15.4631C17.5353 15.2257 18.4978 15.2372 19.4074 15.4967C20.3171 15.7561 21.1409 16.254 21.7935 16.9387C22.4461 17.6235 22.9039 18.4702 23.1193 19.3912C23.155 19.5313 23.1624 19.677 23.141 19.82C23.1197 19.9629 23.07 20.1001 22.9949 20.2236C22.9198 20.3471 22.8209 20.4544 22.7038 20.5391C22.5867 20.6239 22.4539 20.6844 22.3132 20.7171C22.1724 20.7499 22.0265 20.7543 21.8841 20.7299C21.7416 20.7056 21.6055 20.6531 21.4836 20.5754C21.3617 20.4978 21.2565 20.3966 21.1742 20.2778C21.0919 20.159 21.0342 20.025 21.0043 19.8836C20.8765 19.3399 20.6057 18.8402 20.22 18.4362C19.8344 18.0322 19.3478 17.7385 18.8106 17.5855C18.2735 17.4325 17.7052 17.4258 17.1645 17.566C16.6239 17.7062 16.1305 17.9883 15.7354 18.3831L12.5905 21.528C12.1521 21.966 11.8535 22.5242 11.7323 23.1319C11.6112 23.7397 11.673 24.3697 11.91 24.9423C12.1469 25.5149 12.5484 26.0044 13.0635 26.3489C13.5787 26.6933 14.1844 26.8773 14.8041 26.8775C15.2159 26.8787 15.6238 26.7982 16.0043 26.6407C16.3847 26.4831 16.7301 26.2517 17.0205 25.9598L17.483 25.4964C17.5839 25.395 17.7038 25.3146 17.8359 25.2597C17.968 25.2048 18.1096 25.1765 18.2527 25.1765C18.3957 25.1765 18.5373 25.2048 18.6694 25.2597C18.8015 25.3146 18.9215 25.395 19.0224 25.4964ZM28.9458 12.5032C27.9504 11.5082 26.6006 10.9492 25.1932 10.9492C23.7857 10.9492 22.4359 11.5082 21.4405 12.5032L20.9781 12.9657C20.7741 13.1697 20.6595 13.4464 20.6595 13.735C20.6595 14.0235 20.7741 14.3002 20.9781 14.5042C21.1821 14.7082 21.4588 14.8228 21.7473 14.8228C22.0359 14.8228 22.3126 14.7082 22.5166 14.5042L22.98 14.0408C23.568 13.4528 24.3656 13.1224 25.1972 13.1224C26.0289 13.1224 26.8264 13.4528 27.4145 14.0408C28.0025 14.6289 28.3329 15.4265 28.3329 16.2581C28.3329 17.0897 28.0025 17.8873 27.4145 18.4754L24.2642 21.6157C23.9738 21.9077 23.6284 22.1391 23.2479 22.2966C22.8675 22.4541 22.4596 22.5346 22.0478 22.5334C21.3414 22.5329 20.656 22.2938 20.1025 21.8549C19.5491 21.416 19.1602 20.8029 18.9988 20.1152C18.9336 19.8347 18.7595 19.5915 18.5149 19.4393C18.2703 19.287 17.9753 19.2382 17.6947 19.3035C17.4141 19.3687 17.171 19.5428 17.0187 19.7874C16.8665 20.032 16.8176 20.327 16.8829 20.6076C17.1554 21.7722 17.8134 22.8106 18.75 23.5544C19.6867 24.2983 20.8472 24.7038 22.0433 24.7054H22.0478C22.745 24.7073 23.4357 24.571 24.0799 24.3043C24.7241 24.0376 25.309 23.6458 25.8009 23.1515L28.9458 20.0066C29.4385 19.514 29.8294 18.9291 30.0961 18.2854C30.3627 17.6417 30.5 16.9517 30.5 16.2549C30.5 15.5582 30.3627 14.8682 30.0961 14.2245C29.8294 13.5808 29.4385 12.9959 28.9458 12.5032Z" fill="#DDDDDD"/>
</svg>
