<svg width="40" height="40" viewBox="0 0 40 40" fill="none" xmlns="http://www.w3.org/2000/svg">
<path d="M21.0794 9.5C22.2606 9.50315 22.8601 9.50945 23.3777 9.52415L23.5814 9.5315C23.8166 9.5399 24.0487 9.5504 24.329 9.563C25.4461 9.61549 26.2084 9.79189 26.8772 10.0512C27.5702 10.3179 28.154 10.6791 28.7377 11.2618C29.2718 11.7865 29.685 12.4214 29.9483 13.1223C30.2077 13.7911 30.384 14.5534 30.4365 15.6716C30.4491 15.9509 30.4596 16.1829 30.468 16.4192L30.4743 16.6228C30.4901 17.1394 30.4964 17.7389 30.4985 18.9201L30.4995 19.7034V21.0788C30.5021 21.8447 30.494 22.6105 30.4754 23.3761L30.4691 23.5798C30.4607 23.816 30.4502 24.0481 30.4376 24.3274C30.3851 25.4455 30.2066 26.2068 29.9483 26.8766C29.685 27.5775 29.2718 28.2124 28.7377 28.7371C28.213 29.2712 27.5781 29.6844 26.8772 29.9477C26.2084 30.2071 25.4461 30.3834 24.329 30.4359L23.5814 30.4674L23.3777 30.4737C22.8601 30.4884 22.2606 30.4958 21.0794 30.4979L20.2962 30.4989H18.9218C18.1556 30.5016 17.3894 30.4936 16.6234 30.4748L16.4197 30.4685C16.1705 30.4591 15.9213 30.4482 15.6722 30.4359C14.555 30.3834 13.7928 30.2071 13.1229 29.9477C12.4224 29.6842 11.7878 29.2711 11.2635 28.7371C10.729 28.2125 10.3155 27.5776 10.0518 26.8766C9.79248 26.2078 9.61609 25.4455 9.56359 24.3274L9.5321 23.5798L9.52685 23.3761C9.50749 22.6105 9.49874 21.8447 9.5006 21.0788V18.9201C9.49769 18.1543 9.50539 17.3885 9.5237 16.6228L9.53105 16.4192C9.53945 16.1829 9.54994 15.9509 9.56254 15.6716C9.61504 14.5534 9.79143 13.7922 10.0508 13.1223C10.315 12.4212 10.7293 11.7862 11.2645 11.2618C11.7886 10.728 12.4228 10.3148 13.1229 10.0512C13.7928 9.79189 14.554 9.61549 15.6722 9.563C15.9515 9.5504 16.1846 9.5399 16.4197 9.5315L16.6234 9.5252C17.3891 9.50654 18.1549 9.49849 18.9207 9.50105L21.0794 9.5ZM20.0001 14.7497C18.6078 14.7497 17.2725 15.3028 16.2879 16.2873C15.3034 17.2719 14.7503 18.6072 14.7503 19.9995C14.7503 21.3918 15.3034 22.7271 16.2879 23.7116C17.2725 24.6961 18.6078 25.2492 20.0001 25.2492C21.3924 25.2492 22.7277 24.6961 23.7122 23.7116C24.6967 22.7271 25.2498 21.3918 25.2498 19.9995C25.2498 18.6072 24.6967 17.2719 23.7122 16.2873C22.7277 15.3028 21.3924 14.7497 20.0001 14.7497ZM20.0001 16.8496C20.4137 16.8496 20.8233 16.931 21.2055 17.0892C21.5877 17.2474 21.935 17.4794 22.2275 17.7718C22.52 18.0643 22.7521 18.4115 22.9105 18.7936C23.0688 19.1757 23.1504 19.5853 23.1504 19.9989C23.1505 20.4126 23.0691 20.8222 22.9109 21.2044C22.7526 21.5866 22.5207 21.9338 22.2282 22.2264C21.9358 22.5189 21.5886 22.751 21.2065 22.9093C20.8243 23.0677 20.4148 23.1492 20.0011 23.1493C19.1657 23.1493 18.3646 22.8175 17.7738 22.2267C17.1831 21.636 16.8513 20.8349 16.8513 19.9995C16.8513 19.1641 17.1831 18.3629 17.7738 17.7722C18.3646 17.1815 19.1657 16.8496 20.0011 16.8496M25.5133 13.1748C25.1653 13.1748 24.8314 13.3131 24.5853 13.5592C24.3392 13.8053 24.2009 14.1392 24.2009 14.4872C24.2009 14.8353 24.3392 15.1692 24.5853 15.4153C24.8314 15.6614 25.1653 15.7997 25.5133 15.7997C25.8614 15.7997 26.1952 15.6614 26.4414 15.4153C26.6875 15.1692 26.8258 14.8353 26.8258 14.4872C26.8258 14.1392 26.6875 13.8053 26.4414 13.5592C26.1952 13.3131 25.8614 13.1748 25.5133 13.1748Z" fill="#DDDDDD"/>
</svg>
