<svg width="40" height="40" viewBox="0 0 40 40" fill="none" xmlns="http://www.w3.org/2000/svg">
<path d="M17.9 23.0371L23.3495 19.9996L17.9 16.9621V23.0371ZM30.038 15.1092C30.1745 15.5851 30.269 16.223 30.332 17.033C30.4055 17.843 30.437 18.5416 30.437 19.1491L30.5 19.9996C30.5 22.217 30.332 23.8471 30.038 24.89C29.7755 25.8012 29.1665 26.3885 28.2215 26.6416C27.728 26.7732 26.825 26.8644 25.439 26.9251C24.074 26.996 22.8245 27.0264 21.6695 27.0264L20 27.0871C15.6005 27.0871 12.86 26.9251 11.7785 26.6416C10.8335 26.3885 10.2245 25.8012 9.962 24.89C9.8255 24.4141 9.731 23.7762 9.668 22.9662C9.5945 22.1562 9.563 21.4576 9.563 20.8501L9.5 19.9996C9.5 17.7822 9.668 16.1521 9.962 15.1092C10.2245 14.198 10.8335 13.6107 11.7785 13.3576C12.272 13.226 13.175 13.1349 14.561 13.0741C15.926 13.0032 17.1755 12.9729 18.3305 12.9729L20 12.9121C24.3995 12.9121 27.14 13.0741 28.2215 13.3576C29.1665 13.6107 29.7755 14.198 30.038 15.1092Z" fill="#DDDDDD"/>
</svg>
