<svg width="40" height="40" viewBox="0 0 40 40" fill="none" xmlns="http://www.w3.org/2000/svg">
<path d="M28.1667 9.5H11.8333C10.55 9.5 9.5 10.55 9.5 11.8333V28.1667C9.5 29.4512 10.55 30.5 11.8333 30.5H20V22.3333H17.6667V19.4458H20V17.0542C20 14.5295 21.414 12.7562 24.3937 12.7562L26.4972 12.7585V15.7977H25.1007C23.941 15.7977 23.5 16.668 23.5 17.4753V19.447H26.496L25.8333 22.3333H23.5V30.5H28.1667C29.45 30.5 30.5 29.4512 30.5 28.1667V11.8333C30.5 10.55 29.45 9.5 28.1667 9.5Z" fill="#DDDDDD"/>
</svg>
