<svg width="40" height="40" viewBox="0 0 40 40" fill="none" xmlns="http://www.w3.org/2000/svg">
<path d="M27.35 21.6653V17.9C27.35 14.5221 25.0558 11.6766 21.9478 10.8209C21.6401 10.046 20.8883 9.5 20 9.5C19.1117 9.5 18.3599 10.046 18.0523 10.8209C14.9443 11.6777 12.65 14.5221 12.65 17.9V21.6653L10.8577 23.4576C10.6608 23.6545 10.5501 23.9215 10.55 24.2V26.3C10.55 26.5785 10.6607 26.8455 10.8576 27.0425C11.0545 27.2394 11.3216 27.35 11.6 27.35H28.4C28.6785 27.35 28.9456 27.2394 29.1425 27.0425C29.3394 26.8455 29.45 26.5785 29.45 26.3V24.2C29.45 23.9215 29.3393 23.6545 29.1424 23.4576L27.35 21.6653ZM27.35 25.25H12.65V24.6347L14.4424 22.8423C14.6393 22.6455 14.75 22.3785 14.75 22.1V17.9C14.75 15.0051 17.1052 12.65 20 12.65C22.8949 12.65 25.25 15.0051 25.25 17.9V22.1C25.25 22.3793 25.3603 22.646 25.5577 22.8423L27.35 24.6347V25.25ZM20 30.5C20.6503 30.5008 21.2847 30.299 21.815 29.9227C22.3452 29.5463 22.7451 29.0141 22.9589 28.4H17.0411C17.255 29.0141 17.6548 29.5463 18.1851 29.9227C18.7154 30.299 19.3498 30.5008 20 30.5Z" fill="#DDDDDD"/>
</svg>
