<svg viewBox="0 0 181 15" fill="none" xmlns="http://www.w3.org/2000/svg">
<path d="M2.33984 14H0.669922V0.669922H8.83398V2.13477H2.33984V6.34375H7.7207V7.69141H2.33984V14ZM11.9391 14H10.4059V4.13672H11.7535V6.44141C12.2288 5.35417 12.704 4.65104 13.1793 4.33203C13.6611 4.00651 14.1526 3.84375 14.6539 3.84375C14.8102 3.84375 15.012 3.85677 15.2594 3.88281V5.34766H14.9469C14.1005 5.34766 13.3974 5.66341 12.8375 6.29492C12.2776 6.92643 11.9781 7.75651 11.9391 8.78516V14ZM25.132 14H23.6086C23.55 13.6875 23.4914 13.0951 23.4328 12.2227C22.7557 13.5833 21.6034 14.2637 19.9758 14.2637C18.869 14.2637 18.0194 13.9707 17.427 13.3848C16.8345 12.7988 16.5383 12.0957 16.5383 11.2754C16.5383 10.2793 16.9615 9.46224 17.8078 8.82422C18.6542 8.17969 20.093 7.85742 22.1242 7.85742C22.3977 7.85742 22.8339 7.87044 23.4328 7.89648C23.4328 7.11523 23.371 6.55208 23.2473 6.20703C23.1301 5.85547 22.8762 5.57552 22.4855 5.36719C22.0949 5.15885 21.5806 5.05469 20.9426 5.05469C19.3866 5.05469 18.4816 5.64714 18.2277 6.83203L16.8117 6.58789C17.1568 4.77148 18.6086 3.86328 21.1672 3.86328C22.5279 3.86328 23.4914 4.16602 24.0578 4.77148C24.6307 5.37044 24.9172 6.41211 24.9172 7.89648V12.0859C24.9172 12.7826 24.9888 13.4206 25.132 14ZM23.4328 9.06836C22.8078 9.0293 22.3326 9.00977 22.007 9.00977C20.7961 9.00977 19.8553 9.20833 19.1848 9.60547C18.5142 10.0026 18.1789 10.582 18.1789 11.3438C18.1789 11.8255 18.3579 12.2357 18.716 12.5742C19.0806 12.9128 19.6047 13.082 20.2883 13.082C21.2128 13.082 21.9712 12.7467 22.5637 12.0762C23.1626 11.4056 23.4621 10.6178 23.4621 9.71289C23.4621 9.5306 23.4523 9.31576 23.4328 9.06836ZM36.1668 14H34.7313V7.66211C34.7313 6.75065 34.5327 6.10938 34.1355 5.73828C33.7384 5.36719 33.2566 5.18164 32.6902 5.18164C31.909 5.18164 31.2514 5.49414 30.7176 6.11914C30.1902 6.74414 29.9266 7.56771 29.9266 8.58984V14H28.3934V4.13672H29.8191V5.95312C30.6199 4.5599 31.6583 3.86328 32.9344 3.86328C33.6701 3.86328 34.2951 4.05534 34.8094 4.43945C35.3302 4.81706 35.685 5.24349 35.8738 5.71875C36.0691 6.19401 36.1668 7.05339 36.1668 8.29688V14ZM47.7777 14H46.1859L43.3051 8.49219L41.1664 10.9531V14H39.6332V0.669922H41.1664V9.20508L45.7465 4.13672H47.3871L44.3012 7.60352L47.7777 14ZM51.5859 14H50.0527V0.669922H51.5859V14ZM56.6441 0.669922V2.36914H54.9938V0.669922H56.6441ZM56.5953 4.13672V14H55.0621V4.13672H56.5953ZM67.8254 14H66.3898V7.66211C66.3898 6.75065 66.1913 6.10938 65.7941 5.73828C65.397 5.36719 64.9152 5.18164 64.3488 5.18164C63.5676 5.18164 62.91 5.49414 62.3762 6.11914C61.8488 6.74414 61.5852 7.56771 61.5852 8.58984V14H60.052V4.13672H61.4777V5.95312C62.2785 4.5599 63.3169 3.86328 64.593 3.86328C65.3286 3.86328 65.9536 4.05534 66.468 4.43945C66.9888 4.81706 67.3436 5.24349 67.5324 5.71875C67.7277 6.19401 67.8254 7.05339 67.8254 8.29688V14ZM86.7016 7.28125V14.1758H85.6762L85.2172 12.5059C84.3969 13.6777 83.1762 14.2637 81.5551 14.2637C79.7973 14.2637 78.4301 13.6029 77.4535 12.2812C76.477 10.9596 75.9887 9.35482 75.9887 7.4668C75.9887 5.44857 76.5062 3.76562 77.5414 2.41797C78.5766 1.07031 79.9828 0.396484 81.7602 0.396484C84.2146 0.396484 85.8161 1.68555 86.5648 4.26367L84.9828 4.64453C84.7549 3.65495 84.3285 2.93555 83.7035 2.48633C83.0785 2.03711 82.3949 1.8125 81.6527 1.8125C80.3376 1.8125 79.3676 2.3431 78.7426 3.4043C78.1176 4.46549 77.8051 5.79688 77.8051 7.39844C77.8051 9.1237 78.1534 10.4746 78.85 11.4512C79.5531 12.4212 80.5069 12.9062 81.7113 12.9062C82.6488 12.9062 83.4301 12.597 84.0551 11.9785C84.6866 11.3535 85.0023 10.4941 85.0023 9.40039C85.0023 9.19857 84.9958 8.95768 84.9828 8.67773H81.682V7.28125H86.7016ZM93.5762 14.2637C92.222 14.2637 91.1641 13.7624 90.4023 12.7598C89.6471 11.7572 89.2695 10.5137 89.2695 9.0293C89.2695 7.46029 89.696 6.20703 90.5488 5.26953C91.4017 4.33203 92.4629 3.86328 93.7324 3.86328C95.0931 3.86328 96.1641 4.35807 96.9453 5.34766C97.7331 6.33073 98.127 7.5612 98.127 9.03906C98.127 10.5755 97.7038 11.832 96.8574 12.8086C96.0111 13.7786 94.9173 14.2637 93.5762 14.2637ZM93.6934 13.0039C94.4746 13.0039 95.1289 12.6816 95.6562 12.0371C96.1836 11.3926 96.4473 10.39 96.4473 9.0293C96.4473 7.66211 96.1706 6.67253 95.6172 6.06055C95.0638 5.44206 94.416 5.13281 93.6738 5.13281C92.9121 5.13281 92.2676 5.44531 91.7402 6.07031C91.2129 6.6888 90.9492 7.67188 90.9492 9.01953C90.9492 10.4453 91.2129 11.4674 91.7402 12.0859C92.2676 12.6979 92.9186 13.0039 93.6934 13.0039ZM105.148 12.9453V14.1562C104.608 14.2279 104.139 14.2637 103.742 14.2637C101.834 14.2637 100.88 13.2676 100.88 11.2754V5.33789H99.1324V4.13672H100.88L100.949 1.65625L102.375 1.51953V4.13672H104.582V5.33789H102.375V11.5293C102.375 12.5449 102.902 13.0527 103.957 13.0527C104.308 13.0527 104.705 13.0169 105.148 12.9453ZM114.962 14H113.429V8.01367C113.429 7.31055 113.383 6.7832 113.292 6.43164C113.208 6.08008 112.999 5.77734 112.667 5.52344C112.342 5.26302 111.964 5.13281 111.534 5.13281C110.747 5.13281 110.086 5.45508 109.552 6.09961C109.025 6.74414 108.761 7.60677 108.761 8.6875V14H107.228V0.669922H108.761V5.95312C109.458 4.5599 110.454 3.86328 111.749 3.86328C112.329 3.86328 112.843 3.97721 113.292 4.20508C113.748 4.43294 114.096 4.73242 114.337 5.10352C114.578 5.47461 114.741 5.84245 114.825 6.20703C114.917 6.5651 114.962 7.16732 114.962 8.01367V14ZM120.011 0.669922V2.36914H118.36V0.669922H120.011ZM119.962 4.13672V14H118.429V4.13672H119.962ZM129.248 10.543L130.635 10.7871C130.44 11.8743 130.007 12.7272 129.336 13.3457C128.666 13.9577 127.829 14.2637 126.827 14.2637C125.466 14.2637 124.427 13.7624 123.711 12.7598C123.002 11.7572 122.647 10.5332 122.647 9.08789C122.647 7.59049 123.021 6.34701 123.77 5.35742C124.525 4.36133 125.551 3.86328 126.846 3.86328C127.92 3.86328 128.78 4.18555 129.424 4.83008C130.075 5.4681 130.479 6.29492 130.635 7.31055L129.248 7.57422C128.988 5.94661 128.2 5.13281 126.885 5.13281C126.039 5.13281 125.388 5.49414 124.932 6.2168C124.476 6.93294 124.248 7.86393 124.248 9.00977C124.248 10.2728 124.473 11.2559 124.922 11.959C125.378 12.6556 126.016 13.0039 126.836 13.0039C128.106 13.0039 128.91 12.1836 129.248 10.543ZM138.671 14V0.669922H143.945C145.273 0.669922 146.256 0.995443 146.894 1.64648C147.539 2.29753 147.861 3.05273 147.861 3.91211C147.861 5.42253 147.073 6.42513 145.498 6.91992C146.435 7.16081 147.132 7.59049 147.587 8.20898C148.043 8.82747 148.271 9.52734 148.271 10.3086C148.271 11.3568 147.916 12.2357 147.207 12.9453C146.504 13.6484 145.416 14 143.945 14H138.671ZM140.283 6.38281H143.183C144.388 6.38281 145.192 6.15495 145.595 5.69922C145.999 5.23698 146.201 4.69661 146.201 4.07812C146.201 3.46615 145.983 2.97135 145.546 2.59375C145.117 2.21615 144.472 2.02734 143.613 2.02734H140.283V6.38281ZM140.283 12.5352H143.857C144.729 12.5352 145.403 12.3236 145.879 11.9004C146.354 11.4772 146.591 10.9271 146.591 10.25C146.591 9.77474 146.484 9.33529 146.269 8.93164C146.054 8.52148 145.752 8.20573 145.361 7.98438C144.97 7.76302 144.388 7.65234 143.613 7.65234H140.283V12.5352ZM154.56 14.2637C153.206 14.2637 152.148 13.7624 151.386 12.7598C150.631 11.7572 150.253 10.5137 150.253 9.0293C150.253 7.46029 150.68 6.20703 151.532 5.26953C152.385 4.33203 153.446 3.86328 154.716 3.86328C156.077 3.86328 157.148 4.35807 157.929 5.34766C158.717 6.33073 159.111 7.5612 159.111 9.03906C159.111 10.5755 158.687 11.832 157.841 12.8086C156.995 13.7786 155.901 14.2637 154.56 14.2637ZM154.677 13.0039C155.458 13.0039 156.113 12.6816 156.64 12.0371C157.167 11.3926 157.431 10.39 157.431 9.0293C157.431 7.66211 157.154 6.67253 156.601 6.06055C156.047 5.44206 155.4 5.13281 154.657 5.13281C153.896 5.13281 153.251 5.44531 152.724 6.07031C152.196 6.6888 151.933 7.67188 151.933 9.01953C151.933 10.4453 152.196 11.4674 152.724 12.0859C153.251 12.6979 153.902 13.0039 154.677 13.0039ZM165.35 14.2637C163.996 14.2637 162.938 13.7624 162.177 12.7598C161.421 11.7572 161.044 10.5137 161.044 9.0293C161.044 7.46029 161.47 6.20703 162.323 5.26953C163.176 4.33203 164.237 3.86328 165.507 3.86328C166.867 3.86328 167.938 4.35807 168.72 5.34766C169.507 6.33073 169.901 7.5612 169.901 9.03906C169.901 10.5755 169.478 11.832 168.632 12.8086C167.785 13.7786 166.692 14.2637 165.35 14.2637ZM165.468 13.0039C166.249 13.0039 166.903 12.6816 167.43 12.0371C167.958 11.3926 168.221 10.39 168.221 9.0293C168.221 7.66211 167.945 6.67253 167.391 6.06055C166.838 5.44206 166.19 5.13281 165.448 5.13281C164.686 5.13281 164.042 5.44531 163.514 6.07031C162.987 6.6888 162.723 7.67188 162.723 9.01953C162.723 10.4453 162.987 11.4674 163.514 12.0859C164.042 12.6979 164.693 13.0039 165.468 13.0039ZM180.75 14H179.159L176.278 8.49219L174.139 10.9531V14H172.606V0.669922H174.139V9.20508L178.719 4.13672H180.36L177.274 7.60352L180.75 14Z" fill="white"/>
</svg>
