<svg viewBox="0 0 138 15" fill="none" xmlns="http://www.w3.org/2000/svg">
<path d="M0.259766 14V0.660156H9.89844V3.45801H3.92188V5.95801H7.75977V8.76074H3.92188V14H0.259766ZM9.8541 14V4.54199H12.9547V6.48047C13.8857 5.11979 15.0592 4.43945 16.4752 4.43945V7.52051C15.9023 7.30566 15.3961 7.19824 14.9566 7.19824C13.9833 7.19824 13.316 7.55957 12.9547 8.28223V14H9.8541ZM26.5041 7.39844V12.1006C26.5041 12.527 26.5155 12.8525 26.5383 13.0771C26.5611 13.2985 26.6294 13.6061 26.7434 14H23.6428C23.5874 13.6973 23.5484 13.3636 23.5256 12.999C22.5295 13.7998 21.5285 14.2002 20.5227 14.2002C19.7056 14.2002 19.0383 13.9593 18.5207 13.4775C18.0031 12.9958 17.7443 12.3773 17.7443 11.6221C17.7443 10.4827 18.2359 9.61523 19.2189 9.01953C20.2053 8.42057 21.6408 8.12109 23.5256 8.12109V7.39844C23.5256 7.02734 23.4117 6.73926 23.1838 6.53418C22.9559 6.32585 22.6353 6.22168 22.2219 6.22168C21.8117 6.22168 21.496 6.31608 21.2746 6.50488C21.0533 6.69368 20.9035 6.99154 20.8254 7.39844L18.1838 6.75879C18.3335 6.25098 18.5988 5.81478 18.9797 5.4502C19.3638 5.08561 19.8488 4.81055 20.4348 4.625C21.0207 4.4362 21.6896 4.3418 22.4416 4.3418C23.8283 4.3418 24.8521 4.58105 25.5129 5.05957C26.1737 5.53809 26.5041 6.31771 26.5041 7.39844ZM23.5256 9.60059H23.2814C22.5881 9.60059 22.0119 9.75521 21.5529 10.0645C21.0939 10.3704 20.8645 10.7562 20.8645 11.2217C20.8645 11.5505 20.9702 11.8288 21.1818 12.0566C21.3934 12.2845 21.6538 12.3984 21.9631 12.3984C22.4123 12.3984 22.9331 12.1917 23.5256 11.7783V9.60059ZM29.0916 14V4.54199H32.1922V6.08008C33.1753 4.92122 34.2023 4.3418 35.2732 4.3418C35.7062 4.3418 36.1066 4.43132 36.4744 4.61035C36.8423 4.78939 37.1352 5.04004 37.3533 5.3623C37.5193 5.59342 37.63 5.83919 37.6854 6.09961C37.7439 6.36003 37.7732 6.75391 37.7732 7.28125V14H34.6727V8.30176C34.6727 7.75488 34.6385 7.36751 34.5701 7.13965C34.4269 6.73926 34.1535 6.53906 33.7498 6.53906C33.1508 6.53906 32.6316 6.87923 32.1922 7.55957V14H29.0916ZM40.3119 14V0.601562H43.4125V8.45801L46.7328 4.54199H49.5307L46.9916 7.41797L50.0336 14H46.4301L44.7309 9.83984L43.4125 11.3193V14H40.3119ZM51.4736 14V0.601562H54.5742V14H51.4736ZM57.108 14V4.54199H60.2086V14H57.108ZM57.108 3.39941V0.601562H60.2086V3.39941H57.108ZM62.7424 14V4.54199H65.843V6.08008C66.826 4.92122 67.8531 4.3418 68.924 4.3418C69.357 4.3418 69.7574 4.43132 70.1252 4.61035C70.493 4.78939 70.786 5.04004 71.0041 5.3623C71.1701 5.59342 71.2808 5.83919 71.3361 6.09961C71.3947 6.36003 71.424 6.75391 71.424 7.28125V14H68.3234V8.30176C68.3234 7.75488 68.2893 7.36751 68.2209 7.13965C68.0777 6.73926 67.8042 6.53906 67.4006 6.53906C66.8016 6.53906 66.2824 6.87923 65.843 7.55957V14H62.7424ZM86.0229 9.60059V7.46191H91.4623V14H90.3783L89.4604 12.54C88.9265 13.139 88.3617 13.5719 87.766 13.8389C87.1703 14.1058 86.4883 14.2393 85.7201 14.2393C84.6882 14.2393 83.7247 13.987 82.8295 13.4824C81.9343 12.9779 81.2117 12.2113 80.6615 11.1826C80.1146 10.1507 79.8412 8.88932 79.8412 7.39844C79.8412 5.92708 80.1049 4.66732 80.6322 3.61914C81.1628 2.56771 81.8936 1.77507 82.8246 1.24121C83.7556 0.707357 84.807 0.44043 85.9789 0.44043C87.6521 0.44043 88.9281 0.894531 89.807 1.80273C90.6892 2.71094 91.2409 3.72982 91.4623 4.85938L88.0395 5.40137C87.8018 3.86816 87.1215 3.10156 85.9984 3.10156C84.4522 3.10156 83.6791 4.51432 83.6791 7.33984C83.6791 8.33594 83.7556 9.14486 83.9086 9.7666C84.0616 10.3883 84.3025 10.8457 84.6312 11.1387C84.96 11.4316 85.3897 11.5781 85.9203 11.5781C86.4932 11.5781 86.9311 11.4626 87.2338 11.2314C87.5398 10.9971 87.7383 10.7464 87.8295 10.4795C87.9239 10.2093 87.9939 9.91634 88.0395 9.60059H86.0229ZM98.0244 4.3418C98.9391 4.3418 99.7497 4.5485 100.456 4.96191C101.162 5.37207 101.709 5.94987 102.097 6.69531C102.487 7.44076 102.683 8.29525 102.683 9.25879C102.683 9.9847 102.57 10.652 102.346 11.2607C102.124 11.8695 101.807 12.3936 101.394 12.833C100.983 13.2692 100.49 13.6061 99.9141 13.8438C99.3379 14.0814 98.708 14.2002 98.0244 14.2002C97.1162 14.2002 96.3089 13.9935 95.6025 13.5801C94.8994 13.1667 94.3525 12.584 93.9619 11.832C93.5745 11.0801 93.3809 10.2223 93.3809 9.25879C93.3809 8.30501 93.5745 7.45378 93.9619 6.70508C94.3525 5.95312 94.901 5.37207 95.6074 4.96191C96.3138 4.5485 97.1195 4.3418 98.0244 4.3418ZM98.0439 6.3584C97.1097 6.3584 96.6426 7.35938 96.6426 9.36133C96.6426 11.2266 97.1162 12.1592 98.0635 12.1592C98.9554 12.1592 99.4014 11.1663 99.4014 9.18066C99.4014 7.29915 98.9489 6.3584 98.0439 6.3584ZM105.514 11.5195V6.7002L103.835 6.71973V4.51758L105.573 4.58105L105.856 1.31934H108.654V4.58105L110.656 4.51758V6.71973L108.634 6.7002V10.2402C108.634 10.7057 108.66 11.0492 108.713 11.2705C108.768 11.4919 108.898 11.6595 109.103 11.7734C109.311 11.8841 109.642 11.9395 110.094 11.9395C110.335 11.9395 110.542 11.9264 110.714 11.9004V14C110.203 14.1074 109.63 14.1611 108.996 14.1611C108.048 14.1611 107.326 14.0732 106.828 13.8975C106.33 13.7217 105.986 13.4466 105.797 13.0723C105.609 12.6947 105.514 12.1771 105.514 11.5195ZM112.75 14V0.601562H115.851V6.22168C116.805 4.96842 117.845 4.3418 118.971 4.3418C119.375 4.3418 119.752 4.42969 120.104 4.60547C120.459 4.78125 120.742 5.02539 120.953 5.33789C121.285 5.82617 121.451 6.48047 121.451 7.30078V14H118.351V8.14062C118.351 7.08594 118.017 6.55859 117.35 6.55859C116.777 6.55859 116.277 6.89876 115.851 7.5791V14H112.75ZM123.971 14V4.54199H127.071V14H123.971ZM123.971 3.39941V0.601562H127.071V3.39941H123.971ZM135.704 10.6406L137.784 11.041C137.419 12.1185 136.903 12.9144 136.236 13.4287C135.572 13.943 134.729 14.2002 133.706 14.2002C132.805 14.2002 131.999 14 131.289 13.5996C130.583 13.1992 130.035 12.6344 129.644 11.9053C129.257 11.1761 129.063 10.3477 129.063 9.41992C129.063 8.44987 129.263 7.57747 129.663 6.80273C130.067 6.02799 130.627 5.42415 131.343 4.99121C132.059 4.55827 132.867 4.3418 133.765 4.3418C134.471 4.3418 135.106 4.47363 135.669 4.7373C136.232 5.00098 136.693 5.38346 137.051 5.88477C137.413 6.38281 137.657 6.97526 137.784 7.66211L134.966 7.7793C134.947 6.84505 134.566 6.37793 133.824 6.37793C132.824 6.37793 132.325 7.35124 132.325 9.29785C132.325 11.2184 132.898 12.1787 134.043 12.1787C134.87 12.1787 135.424 11.666 135.704 10.6406Z" fill="white"/>
</svg>
