<svg width="65" height="16" viewBox="0 0 65 16" fill="none" xmlns="http://www.w3.org/2000/svg">
<path d="M0.650391 1.17383H5.35742C6.42513 1.17383 7.32682 1.33659 8.0625 1.66211C8.80469 1.98763 9.36784 2.4694 9.75195 3.10742C10.1426 3.73893 10.3379 4.51693 10.3379 5.44141C10.3379 6.09245 10.2044 6.68815 9.9375 7.22852C9.67708 7.76237 9.29948 8.2181 8.80469 8.5957C8.31641 8.9668 7.73047 9.24349 7.04688 9.42578L6.51953 9.63086H2.0957L2.07617 8.09766H5.41602C6.0931 8.09766 6.65625 7.98047 7.10547 7.74609C7.55469 7.50521 7.89323 7.18294 8.12109 6.7793C8.34896 6.37565 8.46289 5.92969 8.46289 5.44141C8.46289 4.89453 8.35547 4.41602 8.14062 4.00586C7.92578 3.5957 7.58724 3.27995 7.125 3.05859C6.66927 2.83073 6.08008 2.7168 5.35742 2.7168H2.53516V15.3926H0.650391V1.17383ZM8.96094 15.3926L5.50391 8.94727L7.4668 8.9375L10.9727 15.2754V15.3926H8.96094ZM12.6227 10.2266V10.002C12.6227 9.24023 12.7333 8.53385 12.9547 7.88281C13.176 7.22526 13.4951 6.6556 13.9117 6.17383C14.3284 5.68555 14.8329 5.30794 15.4254 5.04102C16.0178 4.76758 16.6819 4.63086 17.4176 4.63086C18.1598 4.63086 18.8271 4.76758 19.4195 5.04102C20.0185 5.30794 20.5263 5.68555 20.943 6.17383C21.3661 6.6556 21.6884 7.22526 21.9098 7.88281C22.1311 8.53385 22.2418 9.24023 22.2418 10.002V10.2266C22.2418 10.9883 22.1311 11.6947 21.9098 12.3457C21.6884 12.9967 21.3661 13.5664 20.943 14.0547C20.5263 14.5365 20.0217 14.9141 19.4293 15.1875C18.8434 15.4544 18.1793 15.5879 17.4371 15.5879C16.6949 15.5879 16.0276 15.4544 15.4352 15.1875C14.8427 14.9141 14.3349 14.5365 13.9117 14.0547C13.4951 13.5664 13.176 12.9967 12.9547 12.3457C12.7333 11.6947 12.6227 10.9883 12.6227 10.2266ZM14.4293 10.002V10.2266C14.4293 10.7539 14.4911 11.252 14.6148 11.7207C14.7385 12.1829 14.9241 12.5931 15.1715 12.9512C15.4254 13.3092 15.7411 13.5924 16.1187 13.8008C16.4964 14.0026 16.9358 14.1035 17.4371 14.1035C17.9319 14.1035 18.3648 14.0026 18.7359 13.8008C19.1135 13.5924 19.426 13.3092 19.6734 12.9512C19.9208 12.5931 20.1064 12.1829 20.2301 11.7207C20.3603 11.252 20.4254 10.7539 20.4254 10.2266V10.002C20.4254 9.48112 20.3603 8.98958 20.2301 8.52734C20.1064 8.05859 19.9176 7.64518 19.6637 7.28711C19.4163 6.92253 19.1038 6.63607 18.7262 6.42773C18.3551 6.2194 17.9189 6.11523 17.4176 6.11523C16.9228 6.11523 16.4866 6.2194 16.109 6.42773C15.7379 6.63607 15.4254 6.92253 15.1715 7.28711C14.9241 7.64518 14.7385 8.05859 14.6148 8.52734C14.4911 8.98958 14.4293 9.48112 14.4293 10.002ZM24.8977 0.392578H26.7141V13.3418L26.5578 15.3926H24.8977V0.392578ZM33.8527 10.0215V10.2266C33.8527 10.9948 33.7616 11.7077 33.5793 12.3652C33.397 13.0163 33.1301 13.5827 32.7785 14.0645C32.427 14.5462 31.9973 14.9206 31.4895 15.1875C30.9816 15.4544 30.399 15.5879 29.7414 15.5879C29.0708 15.5879 28.4816 15.474 27.9738 15.2461C27.4725 15.0117 27.0493 14.6764 26.7043 14.2402C26.3592 13.804 26.0826 13.2767 25.8742 12.6582C25.6724 12.0397 25.5324 11.3431 25.4543 10.5684V9.66992C25.5324 8.88867 25.6724 8.1888 25.8742 7.57031C26.0826 6.95182 26.3592 6.42448 26.7043 5.98828C27.0493 5.54557 27.4725 5.21029 27.9738 4.98242C28.4751 4.74805 29.0578 4.63086 29.7219 4.63086C30.3859 4.63086 30.9751 4.76107 31.4895 5.02148C32.0038 5.27539 32.4335 5.63997 32.7785 6.11523C33.1301 6.59049 33.397 7.16016 33.5793 7.82422C33.7616 8.48177 33.8527 9.21419 33.8527 10.0215ZM32.0363 10.2266V10.0215C32.0363 9.49414 31.9875 8.99935 31.8898 8.53711C31.7922 8.06836 31.6359 7.6582 31.4211 7.30664C31.2062 6.94857 30.923 6.66862 30.5715 6.4668C30.2199 6.25846 29.787 6.1543 29.2727 6.1543C28.8169 6.1543 28.4198 6.23242 28.0812 6.38867C27.7492 6.54492 27.466 6.75651 27.2316 7.02344C26.9973 7.28385 26.8052 7.58333 26.6555 7.92188C26.5122 8.25391 26.4048 8.59896 26.3332 8.95703V11.3105C26.4374 11.7663 26.6066 12.2057 26.841 12.6289C27.0819 13.0456 27.4009 13.3874 27.798 13.6543C28.2017 13.9212 28.6997 14.0547 29.2922 14.0547C29.7805 14.0547 30.1971 13.957 30.5422 13.7617C30.8937 13.5599 31.177 13.2832 31.3918 12.9316C31.6132 12.5801 31.7759 12.1732 31.8801 11.7109C31.9842 11.2487 32.0363 10.7539 32.0363 10.2266ZM36.0594 10.2266V10.002C36.0594 9.24023 36.1701 8.53385 36.3914 7.88281C36.6128 7.22526 36.9318 6.6556 37.3484 6.17383C37.7651 5.68555 38.2697 5.30794 38.8621 5.04102C39.4546 4.76758 40.1186 4.63086 40.8543 4.63086C41.5965 4.63086 42.2638 4.76758 42.8563 5.04102C43.4552 5.30794 43.963 5.68555 44.3797 6.17383C44.8029 6.6556 45.1251 7.22526 45.3465 7.88281C45.5678 8.53385 45.6785 9.24023 45.6785 10.002V10.2266C45.6785 10.9883 45.5678 11.6947 45.3465 12.3457C45.1251 12.9967 44.8029 13.5664 44.3797 14.0547C43.963 14.5365 43.4585 14.9141 42.866 15.1875C42.2801 15.4544 41.616 15.5879 40.8738 15.5879C40.1316 15.5879 39.4643 15.4544 38.8719 15.1875C38.2794 14.9141 37.7716 14.5365 37.3484 14.0547C36.9318 13.5664 36.6128 12.9967 36.3914 12.3457C36.1701 11.6947 36.0594 10.9883 36.0594 10.2266ZM37.866 10.002V10.2266C37.866 10.7539 37.9279 11.252 38.0516 11.7207C38.1753 12.1829 38.3608 12.5931 38.6082 12.9512C38.8621 13.3092 39.1779 13.5924 39.5555 13.8008C39.9331 14.0026 40.3725 14.1035 40.8738 14.1035C41.3686 14.1035 41.8016 14.0026 42.1727 13.8008C42.5503 13.5924 42.8628 13.3092 43.1102 12.9512C43.3576 12.5931 43.5431 12.1829 43.6668 11.7207C43.797 11.252 43.8621 10.7539 43.8621 10.2266V10.002C43.8621 9.48112 43.797 8.98958 43.6668 8.52734C43.5431 8.05859 43.3543 7.64518 43.1004 7.28711C42.853 6.92253 42.5405 6.63607 42.1629 6.42773C41.7918 6.2194 41.3556 6.11523 40.8543 6.11523C40.3595 6.11523 39.9233 6.2194 39.5457 6.42773C39.1746 6.63607 38.8621 6.92253 38.6082 7.28711C38.3608 7.64518 38.1753 8.05859 38.0516 8.52734C37.9279 8.98958 37.866 9.48112 37.866 10.002ZM52.768 4.82617V6.21289H47.0551V4.82617H52.768ZM48.9887 2.25781H50.7953V12.7754C50.7953 13.1335 50.8506 13.4036 50.9613 13.5859C51.072 13.7682 51.2152 13.8887 51.391 13.9473C51.5668 14.0059 51.7556 14.0352 51.9574 14.0352C52.1072 14.0352 52.2634 14.0221 52.4262 13.9961C52.5954 13.9635 52.7224 13.9375 52.807 13.918L52.8168 15.3926C52.6736 15.4382 52.4848 15.4805 52.2504 15.5195C52.0225 15.5651 51.7458 15.5879 51.4203 15.5879C50.9776 15.5879 50.5707 15.5 50.1996 15.3242C49.8285 15.1484 49.5323 14.8555 49.3109 14.4453C49.0961 14.0286 48.9887 13.4688 48.9887 12.7656V2.25781ZM54.6133 10.2266V10.002C54.6133 9.24023 54.724 8.53385 54.9453 7.88281C55.1667 7.22526 55.4857 6.6556 55.9023 6.17383C56.319 5.68555 56.8236 5.30794 57.416 5.04102C58.0085 4.76758 58.6725 4.63086 59.4082 4.63086C60.1504 4.63086 60.8177 4.76758 61.4102 5.04102C62.0091 5.30794 62.5169 5.68555 62.9336 6.17383C63.3568 6.6556 63.679 7.22526 63.9004 7.88281C64.1217 8.53385 64.2324 9.24023 64.2324 10.002V10.2266C64.2324 10.9883 64.1217 11.6947 63.9004 12.3457C63.679 12.9967 63.3568 13.5664 62.9336 14.0547C62.5169 14.5365 62.0124 14.9141 61.4199 15.1875C60.834 15.4544 60.1699 15.5879 59.4277 15.5879C58.6855 15.5879 58.0182 15.4544 57.4258 15.1875C56.8333 14.9141 56.3255 14.5365 55.9023 14.0547C55.4857 13.5664 55.1667 12.9967 54.9453 12.3457C54.724 11.6947 54.6133 10.9883 54.6133 10.2266ZM56.4199 10.002V10.2266C56.4199 10.7539 56.4818 11.252 56.6055 11.7207C56.7292 12.1829 56.9147 12.5931 57.1621 12.9512C57.416 13.3092 57.7318 13.5924 58.1094 13.8008C58.487 14.0026 58.9264 14.1035 59.4277 14.1035C59.9225 14.1035 60.3555 14.0026 60.7266 13.8008C61.1042 13.5924 61.4167 13.3092 61.6641 12.9512C61.9115 12.5931 62.097 12.1829 62.2207 11.7207C62.3509 11.252 62.416 10.7539 62.416 10.2266V10.002C62.416 9.48112 62.3509 8.98958 62.2207 8.52734C62.097 8.05859 61.9082 7.64518 61.6543 7.28711C61.4069 6.92253 61.0944 6.63607 60.7168 6.42773C60.3457 6.2194 59.9095 6.11523 59.4082 6.11523C58.9134 6.11523 58.4772 6.2194 58.0996 6.42773C57.7285 6.63607 57.416 6.92253 57.1621 7.28711C56.9147 7.64518 56.7292 8.05859 56.6055 8.52734C56.4818 8.98958 56.4199 9.48112 56.4199 10.002Z" fill="white"/>
</svg>
